<svg width="48" height="88" viewBox="0 0 48 88" fill="none" xmlns="http://www.w3.org/2000/svg">
<path d="M27.8164 62.9766H16.918C16.957 59.2266 17.2891 56.1602 17.9141 53.7773C18.5781 51.3555 19.6523 49.1484 21.1367 47.1562C22.6211 45.1641 24.5938 42.8984 27.0547 40.3594C28.8516 38.5234 30.4922 36.8047 31.9766 35.2031C33.5 33.5625 34.7305 31.8047 35.668 29.9297C36.6055 28.0156 37.0742 25.7305 37.0742 23.0742C37.0742 20.3789 36.5859 18.0547 35.6094 16.1016C34.6719 14.1484 33.2656 12.6445 31.3906 11.5898C29.5547 10.5352 27.2695 10.0078 24.5352 10.0078C22.2695 10.0078 20.1211 10.418 18.0898 11.2383C16.0586 12.0586 14.418 13.3281 13.168 15.0469C11.918 16.7266 11.2734 18.9336 11.2344 21.668H0.394531C0.472656 17.2539 1.56641 13.4648 3.67578 10.3008C5.82422 7.13672 8.71484 4.71484 12.3477 3.03516C15.9805 1.35547 20.043 0.515625 24.5352 0.515625C29.4961 0.515625 33.7148 1.41406 37.1914 3.21094C40.707 5.00781 43.3828 7.58594 45.2188 10.9453C47.0547 14.2656 47.9727 18.2109 47.9727 22.7812C47.9727 26.2969 47.25 29.5391 45.8047 32.5078C44.3984 35.4375 42.582 38.1914 40.3555 40.7695C38.1289 43.3477 35.7656 45.8086 33.2656 48.1523C31.1172 50.1445 29.6719 52.3906 28.9297 54.8906C28.1875 57.3906 27.8164 60.0859 27.8164 62.9766ZM16.4492 81.5508C16.4492 79.793 16.9961 78.3086 18.0898 77.0977C19.1836 75.8867 20.7656 75.2812 22.8359 75.2812C24.9453 75.2812 26.5469 75.8867 27.6406 77.0977C28.7344 78.3086 29.2812 79.793 29.2812 81.5508C29.2812 83.2305 28.7344 84.6758 27.6406 85.8867C26.5469 87.0977 24.9453 87.7031 22.8359 87.7031C20.7656 87.7031 19.1836 87.0977 18.0898 85.8867C16.9961 84.6758 16.4492 83.2305 16.4492 81.5508Z" fill="white"/>
</svg>
